<svg width="319" height="893" viewBox="0 0 319 893" fill="none" xmlns="http://www.w3.org/2000/svg">
<path d="M66.7509 431.858C-0.133794 365.025 -17.1057 269.806 21.9783 201.777C36.141 177.126 15.0512 164.764 28.3746 121.431C34.798 100.54 66.7509 60.2592 59.4411 74.8675C52.7388 88.2618 59.4411 113.214 59.4411 113.214C59.4411 113.214 70.0585 154.635 91.4214 158.865C121.699 164.861 123.859 140.148 91.4214 79.8891C68.6361 37.5605 115.331 0.913018 147.616 0C125.686 6.39113 119.545 30.1513 178.682 60.7157C258.176 101.802 208.646 185.823 240.359 155.213C257.197 138.96 240.076 114.891 255.435 97.2364C267.328 83.567 296.096 74.8675 296.096 74.8675C296.096 74.8675 279.409 96.5749 272.796 113.214C268.881 153.583 273.46 173.206 296.096 201.777C356.148 277.573 282.571 417.401 252.237 431.858C218.277 459.705 133.636 498.691 66.7509 431.858Z" fill="#7F2400"/>
<path d="M48.5376 479.889C49.2345 478.438 49.8956 477.022 50.5218 475.641C69.9529 432.778 55.8822 422.789 39.3471 398.053H280.269C263.232 435.067 251.272 442.275 264.248 472.322C265.272 474.693 266.451 477.207 267.796 479.889C267.796 479.889 47.8407 481.341 48.5376 479.889Z" fill="#7F2400"/>
<path d="M177.411 832.284C256.905 791.198 207.375 707.177 239.088 737.787C255.926 754.04 238.805 778.109 254.165 795.763C266.057 809.433 294.825 818.133 294.825 818.133C294.825 818.133 278.138 796.425 271.525 779.786C267.611 739.417 272.19 719.794 294.825 691.223C328.023 649.321 320.383 587.851 301.786 538.812C296.204 524.091 291.759 513.675 282.886 498.875C276.372 488.01 270.182 478.993 264.248 472.322C265.272 474.693 266.451 477.207 267.796 479.889C267.796 479.889 47.8407 481.341 48.5376 479.889C49.2345 478.438 49.8956 477.022 50.5218 475.641C42.8223 483.188 37.0035 490.619 30.1567 501.494C19.2413 518.832 10.0473 549.941 10.0473 549.941C-6.0788 598.774 -2.98177 649.992 20.706 691.223C34.8687 715.874 13.7789 728.236 27.1023 771.569C33.5257 792.46 65.4786 832.741 58.1688 818.133C51.4665 804.738 58.1688 779.786 58.1688 779.786C58.1688 779.786 68.7865 738.365 90.1494 734.135C120.427 728.139 122.587 752.852 90.1494 813.111C67.3641 855.44 114.059 892.087 146.344 893C124.415 886.609 118.274 862.849 177.411 832.284Z" fill="#7F2400"/>
<path d="M75.1011 424.104C13.8775 362.959 -1.65788 275.844 34.1181 213.605C47.0821 191.051 27.7772 179.742 39.973 140.097C45.8527 120.984 75.1011 84.1308 68.41 97.4958C62.275 109.75 68.41 132.579 68.41 132.579C68.41 132.579 78.1288 170.474 97.6836 174.345C125.398 179.83 127.375 157.221 97.6836 102.09C76.8268 63.3638 119.569 29.8353 149.121 29C129.048 34.8472 123.427 56.5852 177.559 84.5484C250.324 122.138 204.986 199.009 234.015 171.003C249.428 156.134 233.756 134.113 247.815 117.961C258.701 105.455 285.035 97.4958 285.035 97.4958C285.035 97.4958 269.76 117.356 263.707 132.579C260.123 169.512 264.315 187.465 285.035 213.605C340.004 282.95 272.654 410.878 244.888 424.104C213.802 449.581 136.325 485.249 75.1011 424.104Z" fill="#C96200"/>
<path d="M58.4294 468.048C59.0673 466.72 59.6724 465.425 60.2457 464.161C78.0321 424.945 65.1524 415.807 50.0168 393.176H270.547C254.953 427.04 244.004 433.634 255.882 461.124C256.819 463.294 257.899 465.594 259.13 468.048C259.13 468.048 57.7915 469.376 58.4294 468.048Z" fill="#C96200"/>
<path d="M176.395 790.452C249.161 752.862 203.823 675.991 232.852 703.996C248.265 718.866 232.593 740.887 246.652 757.039C257.538 769.545 283.872 777.504 283.872 777.504C283.872 777.504 268.597 757.644 262.544 742.421C258.96 705.488 263.152 687.535 283.872 661.395C314.259 623.06 307.266 566.822 290.243 521.955C285.134 508.488 281.065 498.958 272.943 485.418C266.98 475.477 261.314 467.227 255.882 461.124C256.819 463.294 257.899 465.594 259.13 468.048C259.13 468.048 57.7915 469.376 58.4294 468.048C59.0673 466.72 59.6724 465.425 60.2457 464.161C53.1979 471.066 47.8716 477.864 41.6042 487.814C31.6127 503.676 23.1969 532.138 23.1969 532.138C8.4357 576.815 11.2706 623.674 32.9535 661.395C45.9174 683.949 26.6126 695.258 38.8084 734.903C44.6881 754.016 73.9365 790.869 67.2454 777.504C61.1104 765.25 67.2454 742.421 67.2454 742.421C67.2454 742.421 76.9645 704.526 96.5192 700.655C124.234 695.17 126.211 717.779 96.5192 772.91C75.6625 811.636 118.405 845.165 147.958 846C127.884 840.153 122.264 818.415 176.395 790.452Z" fill="#C96200"/>
<path d="M83.6606 431.317C27.8884 375.71 13.7363 296.486 46.3267 239.884C58.1364 219.373 40.5505 209.088 51.6603 173.034C57.0165 155.652 83.6606 122.137 77.5653 134.292C71.9765 145.436 77.5653 166.197 77.5653 166.197C77.5653 166.197 86.4187 200.66 104.232 204.18C129.479 209.169 131.28 188.607 104.232 138.47C85.2326 103.251 124.169 72.7597 151.09 72C132.804 77.3176 127.683 97.0867 176.995 122.517C243.282 156.702 201.981 226.61 228.424 201.141C242.465 187.619 228.188 167.593 240.996 152.903C250.913 141.53 274.901 134.292 274.901 134.292C274.901 134.292 260.987 152.353 255.472 166.197C252.208 199.785 256.026 216.112 274.901 239.884C324.976 302.949 263.623 419.289 238.329 431.317C210.011 454.487 139.433 486.924 83.6606 431.317Z" fill="#F0A365"/>
<path d="M68.4733 471.281C69.0545 470.073 69.6057 468.895 70.1279 467.746C86.3306 432.083 74.5977 423.771 60.8098 403.191H261.704C247.498 433.988 237.524 439.984 248.344 464.984C249.198 466.958 250.182 469.049 251.303 471.281C251.303 471.281 67.8922 472.488 68.4733 471.281Z" fill="#F0A365"/>
<path d="M175.935 764.483C242.222 730.298 200.921 660.39 227.365 685.859C241.405 699.381 227.129 719.407 239.937 734.097C249.853 745.47 273.842 752.708 273.842 752.708C273.842 752.708 259.927 734.647 254.413 720.803C251.149 687.215 254.967 670.888 273.842 647.116C301.524 612.253 295.153 561.108 279.646 520.306C274.991 508.058 271.285 499.391 263.886 487.078C258.454 478.037 253.293 470.535 248.344 464.984C249.198 466.958 250.182 469.049 251.303 471.281C251.303 471.281 67.8922 472.488 68.4733 471.281C69.0545 470.073 69.6057 468.895 70.1279 467.746C63.7076 474.026 58.8556 480.208 53.1463 489.257C44.0444 503.682 36.378 529.566 36.378 529.566C22.9312 570.196 25.5136 612.811 45.2658 647.116C57.0755 667.627 39.4896 677.912 50.5994 713.966C55.9556 731.348 82.5997 764.863 76.5044 752.708C70.9156 741.564 76.5044 720.803 76.5044 720.803C76.5044 720.803 85.358 686.34 103.172 682.82C128.418 677.831 130.22 698.393 103.172 748.53C84.172 783.749 123.109 814.24 150.03 815C131.744 809.682 126.624 789.913 175.935 764.483Z" fill="#F0A365"/>
<path d="M93.6871 433.309C44.9024 384.513 32.5234 314.992 61.0307 265.322C71.3607 247.323 55.9781 238.298 65.696 206.66C70.3811 191.407 93.6871 161.997 88.3555 172.662C83.4669 182.442 88.3555 200.66 88.3555 200.66C88.3555 200.66 96.0997 230.902 111.681 233.991C133.765 238.369 135.341 220.326 111.681 176.329C95.0622 145.424 129.12 118.667 152.669 118C136.674 122.666 132.195 140.014 175.328 162.33C233.31 192.328 197.183 253.674 220.314 231.325C232.596 219.458 220.108 201.885 231.311 188.995C239.985 179.014 260.968 172.662 260.968 172.662C260.968 172.662 248.797 188.512 243.973 200.66C241.118 230.135 244.458 244.462 260.968 265.322C304.769 320.663 251.103 422.755 228.978 433.309C204.208 453.641 142.472 482.106 93.6871 433.309Z" fill="#FFDFB1"/>
<path d="M80.4026 468.378C80.9109 467.319 81.3931 466.285 81.8499 465.276C96.0226 433.981 85.7597 426.688 73.6992 408.628H249.424C236.998 435.653 228.274 440.915 237.738 462.853C238.485 464.585 239.346 466.42 240.327 468.378C240.327 468.378 79.8943 469.438 80.4026 468.378Z" fill="#FFDFB1"/>
<path d="M174.401 725.67C232.383 695.672 196.257 634.326 219.387 656.675C231.669 668.542 219.181 686.115 230.384 699.005C239.058 708.986 260.041 715.338 260.041 715.338C260.041 715.338 247.87 699.488 243.047 687.34C240.191 657.865 243.531 643.538 260.041 622.678C284.255 592.085 278.683 547.204 265.119 511.399C261.047 500.651 257.805 493.046 251.333 482.24C246.582 474.307 242.067 467.724 237.738 462.853C238.485 464.585 239.346 466.42 240.327 468.378C240.327 468.378 79.8943 469.438 80.4026 468.378C80.9109 467.319 81.3931 466.285 81.8499 465.276C76.234 470.787 71.9898 476.212 66.9958 484.152C59.0343 496.811 52.3283 519.525 52.3283 519.525C40.5662 555.179 42.8251 592.574 60.1027 622.678C70.4327 640.677 55.0501 649.702 64.768 681.34C69.4532 696.593 92.7592 726.003 87.4275 715.338C82.5389 705.558 87.4275 687.34 87.4275 687.34C87.4275 687.34 95.1719 657.098 110.754 654.009C132.837 649.631 134.413 667.675 110.754 711.671C94.1344 742.576 128.193 769.333 151.741 770C135.746 765.334 131.268 747.986 174.401 725.67Z" fill="#FFDFB1"/>
<path d="M130 394C135.817 403.81 150.46 417.544 162.5 394C174.54 417.544 189.183 403.81 195 394" stroke="#380000" stroke-width="5" stroke-linecap="round"/>
<circle cx="118" cy="351" r="25" fill="#380000"/>
<circle cx="135" cy="334" r="8" fill="#FFF3F3"/>
<circle cx="110" cy="359" r="8" fill="#FFF3F3"/>
<circle cx="204" cy="351" r="25" fill="#380000"/>
<circle cx="196" cy="359" r="8" fill="#FFF3F3"/>
<circle cx="221" cy="334" r="8" fill="#FFF3F3"/>
</svg>
