<svg width="180" height="106" viewBox="0 0 180 106" fill="none" xmlns="http://www.w3.org/2000/svg">
<path d="M7.45593 0C16.6085 94.2012 145.471 -4.4915 180 24.31C178.033 27.6904 172.666 42.6932 170.943 46.1865C165.795 56.6212 161.495 67.7298 156.636 80.5269C136.224 78.1433 78.3685 117.638 35.6763 102.558C-21.8284 82.246 7.45593 0 7.45593 0Z" fill="#7F2400"/>
<path d="M24.6275 6C32.7631 90.4256 147.308 1.9746 178 27.7873C176.252 30.8169 171.481 44.2628 169.949 47.3936C165.373 56.7454 161.551 66.7012 157.232 78.1703C139.088 76.0341 87.6609 111.43 49.7122 97.915C-1.40305 79.711 24.6275 6 24.6275 6Z" fill="#C96200"/>
<path d="M43.7162 13C50.7332 84.984 149.528 9.56781 176 31.5765C174.492 34.1596 170.377 45.624 169.056 48.2935C165.109 56.2672 161.813 64.7558 158.088 74.5347C142.438 72.7132 98.0825 102.893 65.3518 91.3696C21.2649 75.8483 43.7162 13 43.7162 13Z" fill="#F0A365"/>
<path d="M66.6807 20C72.4264 79.2727 153.324 17.1739 175 35.2962C173.766 37.4232 170.396 46.8632 169.314 49.0612C166.082 55.6269 163.383 62.6165 160.333 70.6686C147.519 69.1688 111.198 94.0192 84.3968 84.5308C48.2966 71.7503 66.6807 20 66.6807 20Z" fill="#FFDFB1"/>
<path d="M171.5 34L180 24.5L156.5 80.5C156.5 80.5 155.663 75.9503 155.5 73C154.59 56.5628 171.5 34 171.5 34Z" fill="#FFDFB1"/>
</svg>
