<svg width="319" height="691" viewBox="0 0 319 691" fill="none" xmlns="http://www.w3.org/2000/svg">
<path d="M66.7509 334.17C-0.133794 282.455 -17.1057 208.775 21.9783 156.134C36.141 137.059 15.0512 127.494 28.3746 93.9632C34.798 77.7977 66.7509 46.6283 59.4411 57.9322C52.7388 68.2967 59.4411 87.6048 59.4411 87.6048C59.4411 87.6048 70.0585 119.656 91.4214 122.929C121.699 127.569 123.859 108.446 91.4214 61.8179C68.6361 29.0642 115.331 0.70649 147.616 0C125.686 4.94543 119.545 23.3309 178.682 46.9816C258.176 78.7736 208.646 143.789 240.359 120.103C257.197 107.527 240.076 88.9023 255.435 75.2412C267.328 64.6638 296.096 57.9322 296.096 57.9322C296.096 57.9322 279.409 74.7293 272.796 87.6048C268.881 118.842 273.46 134.026 296.096 156.134C356.148 214.785 282.571 322.984 252.237 334.17C218.277 355.718 133.636 385.885 66.7509 334.17Z" fill="#7F2400"/>
<path d="M48.5376 371.337C49.2345 370.213 49.8956 369.118 50.5218 368.049C69.9529 334.882 55.8822 327.152 39.3471 308.012H280.269C263.232 336.654 251.272 342.23 264.248 365.481C265.272 367.316 266.451 369.261 267.796 371.337C267.796 371.337 47.8407 372.46 48.5376 371.337Z" fill="#7F2400"/>
<path d="M177.411 644.018C256.905 612.226 207.375 547.211 239.088 570.897C255.926 583.473 238.805 602.098 254.165 615.759C266.057 626.336 294.825 633.068 294.825 633.068C294.825 633.068 278.138 616.271 271.525 603.395C267.611 572.158 272.19 556.974 294.825 534.866C328.023 502.442 320.383 454.877 301.786 416.93C296.204 405.54 291.759 397.48 282.886 386.028C276.372 377.62 270.182 370.643 264.248 365.481C265.272 367.316 266.451 369.261 267.796 371.337C267.796 371.337 47.8407 372.46 48.5376 371.337C49.2345 370.213 49.8956 369.118 50.5218 368.049C42.8223 373.889 37.0035 379.639 30.1567 388.054C19.2413 401.47 10.0473 425.543 10.0473 425.543C-6.0788 463.329 -2.98177 502.962 20.706 534.866C34.8687 553.941 13.7789 563.506 27.1023 597.037C33.5257 613.202 65.4786 644.372 58.1688 633.068C51.4665 622.703 58.1688 603.395 58.1688 603.395C58.1688 603.395 68.7865 571.344 90.1494 568.071C120.427 563.431 122.587 582.554 90.1494 629.182C67.3641 661.936 114.059 690.294 146.344 691C124.415 686.055 118.274 667.669 177.411 644.018Z" fill="#7F2400"/>
<path d="M75.1011 328.121C13.8775 280.746 -1.65788 213.251 34.1181 165.029C47.0821 147.555 27.7772 138.792 39.973 108.076C45.8527 93.2676 75.1011 64.7145 68.41 75.0696C62.275 84.5641 68.41 102.252 68.41 102.252C68.41 102.252 78.1288 131.612 97.6836 134.611C125.398 138.861 127.375 121.344 97.6836 78.6291C76.8268 48.6246 119.569 22.6472 149.121 22C129.048 26.5303 123.427 43.3726 177.559 65.0381C250.324 94.1617 204.986 153.72 234.015 132.022C249.428 120.501 233.756 103.44 247.815 90.9257C258.701 81.2362 285.035 75.0696 285.035 75.0696C285.035 75.0696 269.76 90.4568 263.707 102.252C260.123 130.867 264.315 144.777 285.035 165.029C340.004 218.757 272.654 317.874 244.888 328.121C213.802 347.86 136.325 375.495 75.1011 328.121Z" fill="#C96200"/>
<path d="M58.4294 362.168C59.0673 361.139 59.6724 360.136 60.2457 359.156C78.0321 328.773 65.1524 321.692 50.0168 304.158H270.547C254.953 330.396 244.004 335.505 255.882 356.804C256.819 358.485 257.899 360.267 259.13 362.168C259.13 362.168 57.7915 363.197 58.4294 362.168Z" fill="#C96200"/>
<path d="M176.395 611.962C249.161 582.838 203.823 523.28 232.852 544.978C248.265 556.498 232.593 573.56 246.652 586.074C257.538 595.764 283.872 601.93 283.872 601.93C283.872 601.93 268.597 586.543 262.544 574.748C258.96 546.133 263.152 532.223 283.872 511.971C314.259 482.269 307.266 438.696 290.243 403.935C285.134 393.5 281.065 386.117 272.943 375.626C266.98 367.924 261.314 361.532 255.882 356.804C256.819 358.485 257.899 360.267 259.13 362.168C259.13 362.168 57.7915 363.197 58.4294 362.168C59.0673 361.139 59.6724 360.136 60.2457 359.156C53.1979 364.506 47.8716 369.773 41.6042 377.482C31.6127 389.772 23.1969 411.824 23.1969 411.824C8.4357 446.439 11.2706 482.745 32.9535 511.971C45.9174 529.445 26.6126 538.207 38.8084 568.924C44.6881 583.732 73.9365 612.285 67.2454 601.93C61.1104 592.436 67.2454 574.748 67.2454 574.748C67.2454 574.748 76.9645 545.388 96.5192 542.389C124.234 538.139 126.211 555.656 96.5192 598.371C75.6625 628.375 118.405 654.353 147.958 655C127.884 650.47 122.264 633.627 176.395 611.962Z" fill="#C96200"/>
<path d="M83.6606 334.072C27.8884 291.038 13.7363 229.728 46.3267 185.924C58.1364 170.051 40.5505 162.091 51.6603 134.189C57.0165 120.738 83.6606 94.8007 77.5653 104.207C71.9765 112.832 77.5653 128.898 77.5653 128.898C77.5653 128.898 86.4187 155.569 104.232 158.293C129.479 162.153 131.28 146.241 104.232 107.44C85.2326 80.1851 124.169 56.5879 151.09 56C132.804 60.1152 127.683 75.4143 176.995 95.0947C243.282 121.55 201.981 175.651 228.424 155.941C242.465 145.476 228.188 129.978 240.996 118.61C250.913 109.809 274.901 104.207 274.901 104.207C274.901 104.207 260.987 118.184 255.472 128.898C252.208 154.892 256.026 167.527 274.901 185.924C324.976 234.729 263.623 324.764 238.329 334.072C210.011 352.002 139.433 377.105 83.6606 334.072Z" fill="#F0A365"/>
<path d="M68.4733 364.999C69.0545 364.065 69.6057 363.153 70.1279 362.264C86.3306 334.664 74.5977 328.232 60.8098 312.305H261.704C247.498 336.139 237.524 340.779 248.344 360.126C249.198 361.654 250.182 363.272 251.303 364.999C251.303 364.999 67.8922 365.934 68.4733 364.999Z" fill="#F0A365"/>
<path d="M175.935 591.905C242.222 565.45 200.921 511.349 227.365 531.059C241.405 541.524 227.129 557.022 239.937 568.39C249.853 577.191 273.842 582.793 273.842 582.793C273.842 582.793 259.927 568.816 254.413 558.102C251.149 532.108 254.967 519.473 273.842 501.076C301.524 474.096 295.153 434.516 279.646 402.939C274.991 393.461 271.285 386.754 263.886 377.224C258.454 370.228 253.293 364.422 248.344 360.126C249.198 361.654 250.182 363.272 251.303 364.999C251.303 364.999 67.8922 365.934 68.4733 364.999C69.0545 364.065 69.6057 363.153 70.1279 362.264C63.7076 367.123 58.8556 371.908 53.1463 378.911C44.0444 390.074 36.378 410.106 36.378 410.106C22.9312 441.549 25.5136 474.528 45.2658 501.076C57.0755 516.949 39.4896 524.909 50.5994 552.811C55.9556 566.262 82.5997 592.199 76.5044 582.793C70.9156 574.168 76.5044 558.102 76.5044 558.102C76.5044 558.102 85.358 531.431 103.172 528.707C128.418 524.847 130.22 540.759 103.172 579.56C84.172 606.815 123.109 630.412 150.03 631C131.744 626.885 126.624 611.586 175.935 591.905Z" fill="#F0A365"/>
<path d="M93.7554 335.22C44.9023 297.425 32.5059 243.578 61.0531 205.107C71.3977 191.166 55.9935 184.176 65.725 159.671C70.4167 147.856 93.7554 125.077 88.4162 133.338C83.5208 140.913 88.4162 155.024 88.4162 155.024C88.4162 155.024 96.1713 178.447 111.775 180.84C133.89 184.23 135.467 170.255 111.775 136.178C95.1323 112.241 129.238 91.5163 152.82 91C136.802 94.6142 132.317 108.051 175.511 125.335C233.574 148.57 197.397 196.085 220.56 178.774C232.858 169.583 220.353 155.972 231.572 145.988C240.258 138.258 261.271 133.338 261.271 133.338C261.271 133.338 249.082 145.614 244.252 155.024C241.393 177.853 244.737 188.95 261.271 205.107C305.133 247.97 251.392 327.045 229.236 335.22C204.431 350.967 142.608 373.014 93.7554 335.22Z" fill="#FFDFB1"/>
<path d="M80.4522 362.382C80.9612 361.561 81.4441 360.761 81.9015 359.979C96.0941 335.74 85.8168 330.091 73.7394 316.103H249.71C237.267 337.035 228.531 341.11 238.008 358.102C238.756 359.444 239.618 360.865 240.6 362.382C240.6 362.382 79.9432 363.203 80.4522 362.382Z" fill="#FFDFB1"/>
<path d="M174.583 561.665C232.646 538.43 196.469 490.915 219.632 508.226C231.93 517.417 219.425 531.028 230.644 541.012C239.33 548.742 260.343 553.662 260.343 553.662C260.343 553.662 248.154 541.386 243.324 531.976C240.465 509.147 243.809 498.05 260.343 481.893C284.59 458.197 279.01 423.436 265.427 395.703C261.35 387.378 258.103 381.488 251.622 373.119C246.864 366.974 242.343 361.875 238.008 358.102C238.756 359.444 239.618 360.865 240.6 362.382C240.6 362.382 79.9432 363.203 80.4522 362.382C80.9612 361.561 81.4441 360.761 81.9015 359.979C76.2777 364.248 72.0277 368.45 67.0266 374.6C59.054 384.404 52.3386 401.997 52.3386 401.997C40.56 429.613 42.8221 458.577 60.1238 481.893C70.4684 495.834 55.0642 502.824 64.7957 527.329C69.4874 539.144 92.8261 561.923 87.4869 553.662C82.5915 546.087 87.4869 531.976 87.4869 531.976C87.4869 531.976 95.2422 508.553 110.846 506.16C132.96 502.77 134.538 516.745 110.846 550.822C94.2033 574.759 128.31 595.484 151.891 596C135.873 592.386 131.388 578.949 174.583 561.665Z" fill="#FFDFB1"/>
<path d="M127 312C132.817 321.81 147.46 335.544 159.5 312C171.54 335.544 186.183 321.81 192 312" stroke="#380000" stroke-width="5" stroke-linecap="round"/>
<circle cx="115" cy="269" r="25" fill="#380000"/>
<circle cx="132" cy="252" r="8" fill="#FFF3F3"/>
<circle cx="107" cy="277" r="8" fill="#FFF3F3"/>
<circle cx="201" cy="269" r="25" fill="#380000"/>
<circle cx="193" cy="277" r="8" fill="#FFF3F3"/>
<circle cx="218" cy="252" r="8" fill="#FFF3F3"/>
</svg>
