<svg width="180" height="106" viewBox="0 0 180 106" fill="none" xmlns="http://www.w3.org/2000/svg">
<path d="M172.545 0C163.392 94.2012 34.5292 -4.4915 0.000492097 24.31C1.96702 27.6904 7.33432 42.6932 9.05781 46.1865C14.2059 56.6212 18.5056 67.7298 23.3646 80.5269C43.7764 78.1433 101.632 117.638 144.324 102.558C201.829 82.246 172.545 0 172.545 0Z" fill="#7F2400"/>
<path d="M155.373 6C147.237 90.4256 32.6927 1.9746 2.00049 27.7873C3.74851 30.8169 8.51944 44.2628 10.0514 47.3936C14.6276 56.7454 18.4495 66.7012 22.7686 78.1703C40.9124 76.0341 92.3396 111.43 130.288 97.915C181.404 79.711 155.373 6 155.373 6Z" fill="#C96200"/>
<path d="M136.284 13C129.267 84.984 30.4725 9.56781 4.00048 31.5765C5.50815 34.1596 9.62308 45.624 10.9444 48.2935C14.8913 56.2672 18.1877 64.7558 21.913 74.5347C37.562 72.7132 81.918 102.893 114.649 91.3696C158.736 75.8483 136.284 13 136.284 13Z" fill="#F0A365"/>
<path d="M113.32 20C107.574 79.2727 26.6768 17.1739 5.00034 35.2962C6.23489 37.4232 9.60436 46.8632 10.6863 49.0612C13.9182 55.6269 16.6175 62.6165 19.6678 70.6686C32.4819 69.1688 68.8024 94.0192 95.6037 84.5308C131.704 71.7503 113.32 20 113.32 20Z" fill="#FFDFB1"/>
<path d="M8.50023 34L0.000226974 24.5L23.5002 80.5C23.5002 80.5 24.337 75.9503 24.5002 73C25.4098 56.5628 8.50023 34 8.50023 34Z" fill="#FFDFB1"/>
</svg>
