<svg width="831" height="741" viewBox="0 0 831 741" fill="none" xmlns="http://www.w3.org/2000/svg">
<path d="M60.4852 664.807C74.8519 662.862 77.0092 675.672 69.1762 681.223C61.3433 686.775 93.8303 712.264 53.9197 704.441C54.3316 720.439 57.9279 727.033 32.6417 722.264C23.7168 735.564 18.7124 734.018 9.78743 722.264C-1.33292 720.148 -3.46859 705.914 5.92474 698.242C13.2838 692.231 -8.42939 683.202 9.78743 674.219C18.7129 656.45 23.7161 652.135 32.6417 669.635C36.0384 646.877 49.1108 666.346 60.4852 664.807Z" fill="#393939"/>
<path d="M74.8843 668.773C90.2959 666.687 92.6101 680.428 84.2075 686.384C75.8049 692.339 110.655 719.682 67.8414 711.29C68.2831 728.451 72.1411 735.525 45.0157 730.41C35.4417 744.677 30.0734 743.018 20.4993 730.41C8.57014 728.139 6.27914 712.87 16.3556 704.64C24.2499 698.192 0.957538 688.506 20.4993 678.87C30.0739 659.809 35.441 655.18 45.0157 673.953C48.6595 649.539 62.6827 670.425 74.8843 668.773Z" fill="#767676"/>
<path d="M70.7898 662.62C85.8531 660.581 88.115 674.012 79.9023 679.833C71.6895 685.653 105.752 712.378 63.906 704.176C64.3378 720.95 68.1086 727.864 41.5962 722.864C32.2386 736.808 26.9916 735.187 17.6339 722.864C5.97433 720.644 3.73511 705.721 13.5839 697.676C21.2997 691.374 -1.46623 681.907 17.6339 672.489C26.9922 653.858 32.2379 649.334 41.5962 667.683C45.1577 643.821 58.8639 664.234 70.7898 662.62Z" fill="#B4B4B4"/>
<path d="M66.4964 669.185C78.5992 667.547 80.4165 678.337 73.8179 683.014C67.2193 687.691 94.5869 709.163 60.9656 702.573C61.3125 716.05 64.3422 721.605 43.0406 717.588C35.5221 728.792 31.3064 727.489 23.7878 717.588C14.4198 715.805 12.6207 703.814 20.5338 697.351C26.7332 692.287 8.44162 684.681 23.7878 677.114C31.3068 662.145 35.5216 658.51 43.0406 673.252C45.9021 654.08 56.9145 670.481 66.4964 669.185Z" fill="#CEC8C1"/>
<path d="M90.5268 563.517C63.3045 565.556 65.7386 555.485 66.7642 593.313C56.0409 619.482 56.4728 627.535 101.748 623.771C110.691 655.551 109.76 650.87 137.392 639C153.809 644.057 187.93 655.431 172.376 619.798C191.004 621.366 193.16 612.329 188.877 593.313C204.393 576.639 187.275 562.384 172.376 563.517L172.033 563.075C155.905 542.285 151.031 536.001 137.392 553.585C117.925 517.729 94.026 553.615 90.5268 563.517Z" fill="#393939"/>
<path d="M94.7808 553.269C71.0122 555.049 73.1374 546.26 74.0329 579.273C64.6701 602.112 65.0471 609.139 104.578 605.855C112.387 633.59 111.574 629.505 135.7 619.145C150.034 623.559 179.827 633.485 166.246 602.387C182.511 603.755 184.394 595.869 180.654 579.273C194.201 564.721 179.255 552.281 166.246 553.269L165.947 552.884C151.865 534.74 147.609 529.256 135.7 544.602C118.703 513.309 97.8362 544.627 94.7808 553.269Z" fill="#767676"/>
<path d="M103.001 566.269C79.0294 568.049 81.1728 559.26 82.076 592.273C72.6331 615.112 73.0133 622.139 112.883 618.855C120.758 646.59 119.938 642.505 144.27 632.145C158.727 636.559 188.774 646.485 175.077 615.387C191.481 616.755 193.38 608.869 189.608 592.273C203.271 577.721 188.197 565.281 175.077 566.269L174.775 565.884C160.573 547.74 156.281 542.256 144.27 557.602C127.128 526.309 106.083 557.627 103.001 566.269Z" fill="#B4B4B4"/>
<path d="M93.018 564.646C70.8746 566.295 72.8545 558.147 73.6888 588.753C64.9661 609.927 65.3174 616.442 102.146 613.396C109.42 639.109 108.663 635.322 131.14 625.718C144.494 629.81 172.249 639.012 159.597 610.182C174.749 611.45 176.504 604.139 173.02 588.753C185.64 575.262 171.716 563.729 159.597 564.646L159.318 564.288C146.199 547.467 142.234 542.383 131.14 556.61C115.304 527.599 95.8644 556.634 93.018 564.646Z" fill="#CEC8C1"/>
<path d="M285.182 65.3699C94.8148 0.317154 106.762 168.677 131.725 198.552C92.985 165.681 -44.6373 301.409 92.4687 360.273C80.4731 476.61 122.579 509.672 220.944 431.621C292.629 542.86 309.707 543.898 383.917 475.618C435.376 572.214 474.269 577.104 556.407 523.183C611.481 586.573 638.953 578.052 683.692 507.725C826.948 475.457 839.008 361.236 761.016 304.384C834.468 202.347 838.768 162.231 693.209 161.689C681.91 25.1286 684.78 34.4539 510.013 72.5046C445.52 -12.2427 401.662 -32.6832 285.182 65.3699Z" fill="#393939"/>
<path d="M305.182 81.3699C114.815 16.3172 126.762 184.677 151.725 214.552C112.985 181.682 -24.6373 317.409 112.469 376.273C100.473 492.61 142.579 525.672 240.944 447.621C312.629 558.86 329.707 559.898 403.917 491.618C455.376 588.214 494.269 593.104 576.407 539.183C631.481 602.573 658.953 594.052 703.692 523.725C846.948 491.457 859.008 377.236 781.016 320.384C854.468 218.347 858.768 178.231 713.209 177.689C701.91 41.1286 704.78 50.4539 530.013 88.5046C465.52 3.75728 421.662 -16.6832 305.182 81.3699Z" fill="#767676"/>
<path d="M290.843 89.3642C118.094 30.288 128.936 183.18 151.589 210.31C116.434 180.46 -8.45232 303.717 115.965 357.174C105.08 462.822 143.289 492.847 232.551 421.966C297.601 522.986 313.099 523.929 380.442 461.922C427.138 549.643 462.432 554.084 536.969 505.117C586.946 562.683 611.875 554.945 652.474 491.079C782.472 461.775 793.416 358.048 722.641 306.419C789.296 213.757 793.198 177.326 661.11 176.834C650.857 52.82 653.461 61.2886 494.868 95.8434C436.344 18.8821 396.544 0.319525 290.843 89.3642Z" fill="#B4B4B4"/>
<path d="M325.443 122.863C159.79 65.2807 170.186 214.306 191.909 240.75C158.198 211.654 38.4416 331.795 157.748 383.899C147.31 486.875 183.95 516.141 269.545 447.053C331.924 545.518 346.785 546.437 411.361 485.998C456.14 571.501 489.983 575.829 561.458 528.1C609.383 584.21 633.288 576.668 672.219 514.417C796.877 485.855 807.372 384.751 739.505 334.428C803.421 244.109 807.163 208.6 680.501 208.12C670.668 87.2428 673.166 95.4972 521.087 129.178C464.967 54.1632 426.802 36.0702 325.443 122.863Z" fill="#CEC8C1"/>
</svg>
